<?xml version="1.0" encoding="UTF-8"?>
<svg version="1.1" xmlns="http://www.w3.org/2000/svg" width="400" height="400">
<path d="M0 0 C1.98 0 3.96 0 6 0 C6 0.66 6 1.32 6 2 C6.61875 1.67 7.2375 1.34 7.875 1 C12.75320564 -0.5610258 18.19967646 -0.73639993 23.18359375 0.57421875 C25.08472913 1.22411021 25.08472913 1.22411021 27 0 C28.78633815 -0.1729629 30.58088959 -0.2668055 32.375 -0.3125 C33.33148438 -0.34988281 34.28796875 -0.38726562 35.2734375 -0.42578125 C38.83438524 0.13029798 39.79418602 1.18391276 42 4 C42.45410156 6.93261719 42.45410156 6.93261719 42.390625 10.296875 C42.37773437 11.50214844 42.36484375 12.70742187 42.3515625 13.94921875 C42.31804687 15.20347656 42.28453125 16.45773438 42.25 17.75 C42.23195312 19.01972656 42.21390625 20.28945312 42.1953125 21.59765625 C42.14817153 24.73253077 42.08237664 27.8658856 42 31 C39.36 31 36.72 31 34 31 C33.97494385 30.3387915 33.9498877 29.67758301 33.92407227 28.99633789 C33.80846898 26.01817695 33.68558246 23.0403608 33.5625 20.0625 C33.52318359 19.02158203 33.48386719 17.98066406 33.44335938 16.90820312 C33.40146484 15.91884766 33.35957031 14.92949219 33.31640625 13.91015625 C33.26141968 12.53549194 33.26141968 12.53549194 33.20532227 11.13305664 C33.22996136 9.0179272 33.22996136 9.0179272 32 8 C30.02 8 28.04 8 26 8 C25.67 15.59 25.34 23.18 25 31 C22.36 31 19.72 31 17 31 C17 23.41 17 15.82 17 8 C14.36 8 11.72 8 9 8 C8.67 15.59 8.34 23.18 8 31 C5.36 31 2.72 31 0 31 C0 20.77 0 10.54 0 0 Z " fill="#4B4B4B" transform="translate(173,186)"/>
<path d="M0 0 C2.64 0 5.28 0 8 0 C8.33 3.96 8.66 7.92 9 12 C9.845625 11.79375 10.69125 11.5875 11.5625 11.375 C15.67370161 10.92650528 18.17520794 11.44175138 22 13 C26.87730535 18.00565549 27.3475273 22.40955508 27.28515625 29.13671875 C26.7637403 34.37230626 24.75664254 38.34982064 20.9375 41.9375 C17.43444769 43.85852868 14.55221484 44.16060127 10.625 44.1875 C9.68914062 44.20167969 8.75328125 44.21585938 7.7890625 44.23046875 C5 44 5 44 0 42 C0 28.14 0 14.28 0 0 Z M8 19 C8 25.27 8 31.54 8 38 C14.4332702 37.64212482 14.4332702 37.64212482 16.875 35.625 C19.42953905 31.93511027 19.2990097 28.33564058 19 24 C18.04331967 21.07097697 18.04331967 21.07097697 16 19 C11.91385472 17.79847508 11.91385472 17.79847508 8 19 Z " fill="#4B4B4B" transform="translate(254,174)"/>
<path d="M0 0 C3.47830629 1.61611554 5.44707666 3.85588873 7.12890625 7.3359375 C8.96976249 12.9658207 8.76198927 18.90452951 6.75 24.4375 C4.21091331 28.15544837 2.32669372 30.55776876 -2 32 C-6.22177069 32.41110876 -9.87396541 32.47543683 -13.8125 30.8125 C-17.86804754 27.45218918 -20.65725611 24.16335759 -21.23828125 18.80078125 C-21.41625616 12.83393828 -20.85155322 7.77857462 -17 3 C-11.68922819 -0.95114122 -6.38618818 -0.92465783 0 0 Z M-10.25 7.4375 C-12.55816022 10.81730603 -13.2242713 13.97085006 -13 18 C-11.49408732 21.81405033 -11.49408732 21.81405033 -9 25 C-4.28883899 24.91695873 -4.28883899 24.91695873 -0.5625 22.4375 C0.5529279 17.60397911 0.65678671 13.62468293 -1.1875 9.0625 C-2.87304069 6.84996732 -2.87304069 6.84996732 -5.4375 5.9375 C-8.08485933 5.78084497 -8.08485933 5.78084497 -10.25 7.4375 Z " fill="#4B4B4B" transform="translate(241,186)"/>
<path d="M0 0 C1.98 6.93 3.96 13.86 6 21 C8.31 14.07 10.62 7.14 13 0 C19 1 19 1 21 2 C19.33521022 9.05553765 17.08096583 15.87509491 14.625 22.6875 C14.34519287 23.48260986 14.06538574 24.27771973 13.77709961 25.09692383 C11.02599266 32.59534405 7.15161899 38.89437749 2 45 C-0.88575819 44.60196439 -1.82189513 44.20990931 -3.75 41.9375 C-4.36875 40.9784375 -4.36875 40.9784375 -5 40 C-4.54367187 39.59910156 -4.08734375 39.19820312 -3.6171875 38.78515625 C-3.04226563 38.21667969 -2.46734375 37.64820313 -1.875 37.0625 C-1.29492188 36.51722656 -0.71484375 35.97195312 -0.1171875 35.41015625 C2.27713972 30.244772 -0.89433426 24.13220574 -2.7265625 19.0703125 C-3.35341551 17.41959958 -3.9862714 15.77115419 -4.625 14.125 C-5.26749897 12.46266139 -5.90572058 10.79866141 -6.5390625 9.1328125 C-6.81959473 8.40980957 -7.10012695 7.68680664 -7.38916016 6.94189453 C-8 5 -8 5 -8 2 C-2.25 0 -2.25 0 0 0 Z " fill="#4B4B4B" transform="translate(359,185)"/>
<path d="M0 0 C0.33 8.58 0.66 17.16 1 26 C2.464375 24.22625 3.92875 22.4525 5.4375 20.625 C6.26121094 19.62726563 7.08492187 18.62953125 7.93359375 17.6015625 C9.98415834 15.20344705 9.98415834 15.20344705 11 13 C13.16874252 13.50603992 14.99967627 13.99983813 17 15 C15.49087042 19.98012761 12.44338151 23.24259942 9 27 C10.33767411 31.75617461 13.21221399 34.64301631 16.5390625 38.1328125 C18 40 18 40 18 43 C16.35 43.66 14.7 44.32 13 45 C11.18503664 42.87706098 9.37295406 40.75177875 7.5625 38.625 C7.04623047 38.02171875 6.52996094 37.4184375 5.99804688 36.796875 C2.11328125 32.2265625 2.11328125 32.2265625 1 30 C0.67 34.62 0.34 39.24 0 44 C-1.98 44 -3.96 44 -6 44 C-6 29.81 -6 15.62 -6 1 C-3 0 -3 0 0 0 Z " fill="#FFCD03" transform="translate(86,173)"/>
<path d="M0 0 C0 2.31 0 4.62 0 7 C2.97 7 5.94 7 9 7 C9 9.31 9 11.62 9 14 C6.03 14 3.06 14 0 14 C0 19.61 0 25.22 0 31 C2.64 31 5.28 31 8 31 C10 34 10 34 9.8125 36.125 C9.544375 36.74375 9.27625 37.3625 9 38 C6.32296769 38.8923441 4.40616916 39.25160342 1.625 39.375 C0.87476563 39.42398438 0.12453125 39.47296875 -0.6484375 39.5234375 C-4.44732767 38.67783736 -5.75073354 37.14739737 -8 34 C-8.59741082 30.53827046 -8.47325351 27.18698031 -8.3125 23.6875 C-8.27866211 22.29047852 -8.27866211 22.29047852 -8.24414062 20.86523438 C-8.18542078 18.5751604 -8.10336858 16.28842125 -8 14 C-9.65 14 -11.3 14 -13 14 C-13 12.02 -13 10.04 -13 8 C-11.35 7.67 -9.7 7.34 -8 7 C-8 5.02 -8 3.04 -8 1 C-5.07175348 0.02391783 -3.04386724 -0.08226668 0 0 Z " fill="#4B4B4B" transform="translate(339,179)"/>
<path d="M0 0 C4.4790702 2.28179048 6.81968336 4.50741671 9 9 C9.3984375 12.375 9.3984375 12.375 9.375 16 C9.38273437 17.19625 9.39046875 18.3925 9.3984375 19.625 C8.82895 24.44889411 6.72120402 27.89899665 3 31 C-2.40115361 32.80038454 -7.2171082 32.85842938 -12.375 30.375 C-16.18542674 26.92747105 -17.76889122 24.33676658 -18.28125 19.15625 C-18.45098028 13.44199709 -18.44759521 8.80200761 -15 4 C-10.60687335 0.01872897 -5.80612805 -0.79174473 0 0 Z M-11 9 C-12.69214503 14.0764351 -12.49113336 18.41103912 -10.9375 23.4375 C-9.14988251 26.32021123 -9.14988251 26.32021123 -5.5625 27.0625 C-2.07825923 27.26873315 -2.07825923 27.26873315 0.375 25.75 C3.66988648 22.20166072 3.27768637 18.02151611 3.2109375 13.44921875 C2.92934313 10.17959521 2.29396696 8.37043252 0 6 C-5.08003256 4.12259666 -7.31174685 5.20636819 -11 9 Z " fill="#FFCD03" transform="translate(155,186)"/>
<path d="M0 0 C2.30823153 1.90089655 3.04473067 2.99444347 4.125 5.75 C4.35205078 8.40722656 4.35205078 8.40722656 4.3203125 11.390625 C4.31386719 12.46054688 4.30742187 13.53046875 4.30078125 14.6328125 C4.28402344 15.74398437 4.26726562 16.85515625 4.25 18 C4.24097656 19.12664062 4.23195312 20.25328125 4.22265625 21.4140625 C4.19910658 24.19292365 4.1662168 26.9713539 4.125 29.75 C1.45833333 29.75 -1.20833333 29.75 -3.875 29.75 C-5.33371431 29.976729 -6.79201721 30.20611365 -8.25 30.4375 C-11.56879472 30.82667462 -12.71563939 30.81972027 -15.875 29.4375 C-18.11154814 27.55041251 -18.77304543 26.61577814 -19.11328125 23.7265625 C-19.3143457 17.35599407 -19.3143457 17.35599407 -17.0625 14.25 C-13.56296356 11.85031787 -10.81778485 11.63385994 -6.6875 11.6875 C-5.78644531 11.69652344 -4.88539062 11.70554688 -3.95703125 11.71484375 C-3.26996094 11.72644531 -2.58289063 11.73804688 -1.875 11.75 C-2.535 9.77 -3.195 7.79 -3.875 5.75 C-8.13066547 4.58936396 -11.5585078 4.98826608 -15.875 5.75 C-16.205 4.1 -16.535 2.45 -16.875 0.75 C-11.13021063 -1.54791575 -5.84425599 -2.54098087 0 0 Z M-12.875 18.75 C-13.1250773 21.20809998 -13.1250773 21.20809998 -12.875 23.75 C-12.215 24.41 -11.555 25.07 -10.875 25.75 C-7.06590105 25.42582137 -5.09127837 24.89418558 -1.875 22.75 C-1.62484127 19.16642759 -1.62484127 19.16642759 -1.875 15.75 C-5.8399939 15.52342892 -9.90776731 15.78276731 -12.875 18.75 Z " fill="#FFCD03" transform="translate(126.875,187.25)"/>
<path d="M0 0 C3.23154304 2.9377664 3.95332048 6.10129979 4.21948242 10.42529297 C4.25910466 13.36945237 4.23688296 16.30601597 4.1875 19.25 C4.17847656 20.27222656 4.16945313 21.29445312 4.16015625 22.34765625 C4.1367043 24.85701522 4.10388355 27.36588336 4.0625 29.875 C2.4125 29.875 0.7625 29.875 -0.9375 29.875 C-0.9375 29.215 -0.9375 28.555 -0.9375 27.875 C-1.96875 28.37 -3 28.865 -4.0625 29.375 C-7.52262035 30.83299426 -10.14861367 31.45156966 -13.9375 30.875 C-16.83032587 29.33215954 -18.4954181 28.17412412 -19.57421875 25.00390625 C-20.19018982 21.50015681 -20.12231546 19.34730618 -18.8125 16 C-16.50043339 13.37965784 -15.35616371 12.67511278 -11.9375 11.875 C-8.59656819 11.72640027 -5.27896017 11.7582111 -1.9375 11.875 C-2.5975 9.895 -3.2575 7.915 -3.9375 5.875 C-8.56671525 4.8588308 -12.28212607 5.03703269 -16.9375 5.875 C-17.2675 4.555 -17.5975 3.235 -17.9375 1.875 C-12.05405896 -1.7455791 -6.4519256 -2.47095023 0 0 Z M-12.9375 17.875 C-13.70706136 20.22033951 -13.70706136 20.22033951 -13.9375 22.875 C-13.00152685 24.89451062 -13.00152685 24.89451062 -10.9375 25.875 C-7.08501405 25.63421963 -5.17710066 25.03473378 -1.9375 22.875 C-1.68734127 19.29142759 -1.68734127 19.29142759 -1.9375 15.875 C-6.02468695 15.63457724 -9.11429443 16.45241188 -12.9375 17.875 Z " fill="#FFCD03" transform="translate(67.9375,187.125)"/>
<path d="M0 0 C0 14.85 0 29.7 0 45 C-2.64 45 -5.28 45 -8 45 C-8 30.81 -8 16.62 -8 2 C-1 0 -1 0 0 0 Z " fill="#4B4B4B" transform="translate(308,172)"/>
<path d="M0 0 C0 14.52 0 29.04 0 44 C-1.98 44 -3.96 44 -6 44 C-6 29.81 -6 15.62 -6 1 C-2 0 -2 0 0 0 Z " fill="#FFCD03" transform="translate(26,173)"/>
<path d="M0 0 C2.64 0 5.28 0 8 0 C8 10.23 8 20.46 8 31 C5.36 31 2.72 31 0 31 C0 20.77 0 10.54 0 0 Z " fill="#4B4B4B" transform="translate(314,186)"/>
<path d="M0 0 C2.64 0 5.28 0 8 0 C8 10.23 8 20.46 8 31 C5.36 31 2.72 31 0 31 C0 20.77 0 10.54 0 0 Z " fill="#4B4B4B" transform="translate(286,186)"/>
<path d="M0 0 C2.475 0.99 2.475 0.99 5 2 C4.39665691 5.70503641 2.77525763 7.85968148 0.4375 10.75 C-0.20316406 11.54921875 -0.84382813 12.3484375 -1.50390625 13.171875 C-1.99761719 13.77515625 -2.49132813 14.3784375 -3 15 C0.26720791 19.38894929 3.54898478 23.75259665 7 28 C6.01 29.32 5.02 30.64 4 32 C-0.39072461 30.38622532 -2.87631184 27.09191658 -5.8125 23.625 C-6.32748047 23.0475 -6.84246094 22.47 -7.37304688 21.875 C-8.83203125 20.1640625 -8.83203125 20.1640625 -11 17 C-10.51038706 12.59240508 -7.61639953 9.6032305 -4.9375 6.25 C-4.46505859 5.64800781 -3.99261719 5.04601562 -3.50585938 4.42578125 C-2.34309599 2.94590057 -1.1723234 1.47231904 0 0 Z " fill="#FFCD03" transform="translate(38,186)"/>
<path d="M0 0 C2.43142628 1.3333628 4.08651982 3.01320051 5.9375 5.0625 C4.64450306 7.94687779 3.27808637 9.93469421 0.9375 12.0625 C-2.8577131 10.57152342 -4.67292731 8.30549151 -7.0625 5.0625 C-2.68892369 0.08148254 -2.68892369 0.08148254 0 0 Z " fill="#4B4B4B" transform="translate(290.0625,170.9375)"/>
<path d="M0 0 C2.30365256 1.00784799 3.54793194 1.81153486 5 3.875 C4.90311287 6.87850106 3.98152289 7.89515684 1.9375 10.125 C1.298125 10.7025 0.65875 11.28 0 11.875 C-2.88437779 10.58200306 -4.87219421 9.21558637 -7 6.875 C-3.81132075 -0.23820755 -3.81132075 -0.23820755 0 0 Z " fill="#4B4B4B" transform="translate(319,171.125)"/>
</svg>
