<svg xmlns="http://www.w3.org/2000/svg" xmlns:xlink="http://www.w3.org/1999/xlink" width="470.27069pt" height="75.000008pt" viewBox="0 0 470.2707 75.00001"><symbol id="a" transform="translate(-170.506 -173.515)"><path d="M-2147483500-2147483500Z"/></symbol><use xlink:href="#a" width="100%" height="100%" transform="matrix(16 0 0 -16 34359740000 -34359740000)"/><path fill="#fabf00" d="m194.456 192.564 5.107 3.705-12.547 15.822 14.53 17.526-5.035 3.922-17.146-21.097zm-17.436 39.972h-6.514v-55.08l6.514-1.427zM219.552 227.91c.895 0 1.82-.121 2.786-.357.961-.241 1.928-.544 2.895-.924.961-.387 1.868-.846 2.714-1.39a15.53 15.53 0 0 0 2.26-1.753v-9.12h-6.775c-3.432 0-5.94.599-7.518 1.783-1.571 1.185-2.363 3.064-2.363 5.633 0 4.085 2 6.128 6.001 6.128m-12.238-5.844c0-3.947 1.312-6.95 3.935-9.017 2.622-2.061 6.436-3.1 11.446-3.1h7.512v-2.496c0-6.032-2.647-9.048-7.935-9.048-1.698 0-3.487.242-5.349.714-1.873.477-3.583 1.07-5.143 1.782l-1.91-4.635a26.58 26.58 0 0 1 6.268-2.526c2.242-.593 4.436-.895 6.557-.895 9.162 0 13.749 4.92 13.749 14.753v24.941h-4.817l-.785-4.273c-1.934 1.566-4.001 2.774-6.195 3.633-2.2.852-4.285 1.28-6.28 1.28-3.444 0-6.151-.984-8.104-2.954-1.964-1.977-2.949-4.69-2.949-8.16M271.992 192.564l5.107 3.705-12.54 15.822 14.522 17.526-5.028 3.922-17.152-21.097zm-17.43 39.972h-6.52v-55.08l6.52-1.427zM297.093 227.91c.888 0 1.819-.121 2.786-.357.96-.241 1.928-.544 2.894-.924.961-.387 1.868-.846 2.714-1.39.846-.55 1.596-1.13 2.26-1.753v-9.12h-6.774c-3.44 0-5.947.599-7.519 1.783-1.577 1.185-2.363 3.064-2.363 5.633 0 4.085 2 6.128 6.002 6.128m-12.239-5.844c0-3.947 1.312-6.95 3.935-9.017 2.623-2.061 6.436-3.1 11.446-3.1h7.512v-2.496c0-6.032-2.647-9.048-7.935-9.048-1.71 0-3.487.242-5.354.714-1.868.477-3.584 1.07-5.137 1.782l-1.91-4.635a26.58 26.58 0 0 1 6.267-2.526c2.242-.593 4.424-.895 6.557-.895 9.162 0 13.75 4.92 13.75 14.753v24.941h-4.823l-.78-4.273c-1.94 1.566-4 2.774-6.2 3.633-2.2.852-4.286 1.28-6.274 1.28-3.45 0-6.152-.984-8.116-2.954-1.958-1.977-2.938-4.69-2.938-8.16M340.21 198.192c-3.397 0-6.014 1.281-7.827 3.844-1.825 2.568-2.738 6.321-2.738 11.259 0 4.895.913 8.588 2.738 11.084 1.813 2.496 4.43 3.74 7.827 3.74 3.444 0 6.08-1.244 7.904-3.74 1.814-2.496 2.726-6.189 2.726-11.084 0-4.938-.912-8.69-2.726-11.26-1.825-2.562-4.46-3.843-7.904-3.843m0-5.276c5.384 0 9.615 1.759 12.685 5.276 3.07 3.517 4.605 8.552 4.605 15.103 0 6.466-1.517 11.434-4.575 14.897-3.04 3.47-7.288 5.198-12.715 5.198-5.385 0-9.616-1.729-12.68-5.198-3.076-3.463-4.611-8.43-4.611-14.897 0-6.551 1.547-11.586 4.641-15.103 3.095-3.517 7.313-5.276 12.65-5.276" style="stroke-width:6.04352" transform="translate(-170.506 -173.515)"/><path fill="#4f4a4f" d="M369.607 193.569h7.053l1.414 3.777c3.191-3.112 7.796-4.962 12.178-4.962 4.75 0 8.165 1.632 10.098 4.962 3.264-3.185 7.724-4.962 12.027-4.962 7.802 0 12.033 4.442 12.033 14.281v25.903h-9.954v-25.31c0-4.364-1.632-6.213-6.237-6.213-2.079 0-4.605.44-6.237 1.106v30.417h-9.947v-25.31c0-4.364-1.56-6.213-6.165-6.213-1.71 0-4.678.44-6.31 1.106v30.417h-9.953zM441.281 213.401c0 8.292 2.75 12.583 8.389 12.583 5.717 0 8.322-4.291 8.322-12.583 0-8.654-2.678-13.32-8.322-13.32-5.566 0-8.389 4.666-8.389 13.32m26.882-.072c0 12.582-6.908 20.348-18.493 20.348-11.58 0-18.56-7.766-18.56-20.348 0-12.807 7.125-20.947 18.56-20.947 11.44 0 18.493 7.995 18.493 20.947M485.275 201.265v24.718c1.56.224 2.599.224 3.566.224 6.237 0 10.69-3.922 10.69-13.912 0-7.555-1.854-11.918-8.907-11.918-2.23 0-4.158.52-5.349.888m-9.953 30.121v-54.023l9.953-1.777v19.315c2.375-1.48 5.494-2.52 8.914-2.52 10.54 0 15.442 7.18 15.442 19.69 0 13.544-7.428 21.606-19.75 21.606-5.718 0-11.81-1.106-14.56-2.29M526.448 232.573h-9.954v-39h9.954zm-12.256-51.733 7.282-7.325 7.277 7.325-7.277 7.252zM545.171 232.57h-9.953v-55.208l9.953-1.777zM563.9 232.573h-9.954v-39h9.954zm-12.257-51.733 7.277-7.325 7.282 7.325-7.282 7.252zM568.942 194.31l6.237-.738v-7.845l10.099-2.145v9.99h11.73v7.47h-11.73v16.946c0 6.067 1.56 7.18 4.46 7.18 2 0 4.23-.52 6.455-1.33l2.302 6.956c-2.073 1.336-6.756 2.889-11.434 2.889-8.237 0-11.882-5.035-11.882-15.024v-17.617h-6.237zM628.599 227.792c-3.566 9.845-8.093 16.728-14.336 20.723l-6.158-5.626c4.23-3.705 6.757-6.588 9.06-10.806l-13.816-37.96 9.875-2.665 8.914 30.707 8.836-30.785 9.802 2.816z" style="stroke-width:6.04352" transform="translate(-170.506 -173.515)"/></svg>