<?xml version="1.0" encoding="UTF-8"?>
<svg version="1.1" xmlns="http://www.w3.org/2000/svg" width="320" height="320">
<path d="M0 0 C11 0 11 0 13.625 1.5625 C15.46786898 4.82940411 15.87279919 7.24757606 16 11 C15.33847444 13.3347961 14.67258667 15.66836622 14 18 C14.66 18.99 15.32 19.98 16 21 C16.42402824 25.3816251 16.43827294 27.94814494 14.75 32 C12 34 12 34 0 34 C0 22.78 0 11.56 0 0 Z M7 5 C7 7.97 7 10.94 7 14 C7.66 14 8.32 14 9 14 C9.93380961 9.46859347 9.93380961 9.46859347 9 5 C8.34 5 7.68 5 7 5 Z M7 20 C7 22.97 7 25.94 7 29 C7.66 29 8.32 29 9 29 C10.04214691 24.38492226 10.04214691 24.38492226 9 20 C8.34 20 7.68 20 7 20 Z " fill="#000000" transform="translate(203,143)"/>
<path d="M0 0 C3.96 0 7.92 0 12 0 C15.55030361 3.55030361 15.62117408 5.02169115 16.0078125 9.77734375 C15.99359242 13.82295574 14.811844 16.188156 12 19 C13.65 23.95 15.3 28.9 17 34 C14.69 34 12.38 34 10 34 C9.34 32.02 8.68 30.04 8 28 C7.67 29.98 7.34 31.96 7 34 C4.69 34 2.38 34 0 34 C0 22.78 0 11.56 0 0 Z M7 5 C7 7.97 7 10.94 7 14 C7.99 13.34 8.98 12.68 10 12 C10.5 9.5 10.5 9.5 10 7 C9.01 6.34 8.02 5.68 7 5 Z M6 22 C7 24 7 24 7 24 Z " fill="#000000" transform="translate(105,143)"/>
<path d="M0 0 C1.65 0 3.3 0 5 0 C6.95233081 7.72013047 8.89395015 15.44359823 10.75 23.1875 C10.99234375 24.19167969 11.2346875 25.19585937 11.484375 26.23046875 C11.98032194 28.89430494 12.09878135 31.29833008 12 34 C10.02 34 8.04 34 6 34 C5.67 32.35 5.34 30.7 5 29 C3.35 29 1.7 29 0 29 C-0.495 31.475 -0.495 31.475 -1 34 C-2.98 34 -4.96 34 -7 34 C-6.26578989 27.1084369 -4.93080045 20.40290614 -3.5 13.625 C-3.27441406 12.53316406 -3.04882812 11.44132813 -2.81640625 10.31640625 C-1.12871469 2.25742937 -1.12871469 2.25742937 0 0 Z M2 13 C1.67 16.3 1.34 19.6 1 23 C1.99 23 2.98 23 4 23 C3.67 19.7 3.34 16.4 3 13 C2.67 13 2.34 13 2 13 Z " fill="#000000" transform="translate(177,143)"/>
<path d="M0 0 C1.65 0 3.3 0 5 0 C12.28270667 26.39519066 12.28270667 26.39519066 12 34 C10.02 34 8.04 34 6 34 C6 32.02 6 30.04 6 28 C4.02 28 2.04 28 0 28 C-0.33 29.98 -0.66 31.96 -1 34 C-2.98 34 -4.96 34 -7 34 C-5.5649473 22.45532234 -2.7985411 11.2757219 0 0 Z M2 13 C1.67 16.3 1.34 19.6 1 23 C1.99 23 2.98 23 4 23 C3.67 19.7 3.34 16.4 3 13 C2.67 13 2.34 13 2 13 Z " fill="#000000" transform="translate(79,143)"/>
<path d="M0 0 C4.62 0 9.24 0 14 0 C14 1.65 14 3.3 14 5 C11.36 5 8.72 5 6 5 C6 7.97 6 10.94 6 14 C8.31 14 10.62 14 13 14 C13 15.65 13 17.3 13 19 C10.69 19 8.38 19 6 19 C6 22.3 6 25.6 6 29 C8.64 29 11.28 29 14 29 C14 30.65 14 32.3 14 34 C9.38 34 4.76 34 0 34 C0 22.78 0 11.56 0 0 Z " fill="#000000" transform="translate(45,143)"/>
<path d="M0 0 C11 0 11 0 13.6875 1.875 C15.55808876 6.32878276 15.90400048 10.24620439 15 15 C12.8125 18.125 12.8125 18.125 10 20 C8.35 20 6.7 20 5 20 C5 24.62 5 29.24 5 34 C3.35 34 1.7 34 0 34 C0 22.78 0 11.56 0 0 Z M5 5 C5 8.3 5 11.6 5 15 C6.32 14.34 7.64 13.68 9 13 C9.20970559 8.85906302 9.20970559 8.85906302 8 5 C7.01 5 6.02 5 5 5 Z " fill="#000000" transform="translate(16,143)"/>
<path d="M0 0 C1.98 0 3.96 0 6 0 C6.99 2.97 7.98 5.94 9 9 C10.49403054 6.01193893 11.79310745 3.10343799 13 0 C14.98 0 16.96 0 19 0 C18.54388099 1.70892588 18.08499109 3.41711229 17.625 5.125 C17.24214844 6.55199219 17.24214844 6.55199219 16.8515625 8.0078125 C16 11 16 11 14.9375 13.8125 C13.74836112 17.8555722 13.54554586 21.6824142 13.375 25.875 C13.31699219 27.050625 13.31699219 27.050625 13.2578125 28.25 C13.16433378 30.16631367 13.08111505 32.08312319 13 34 C10.69 34 8.38 34 6 34 C5.98582031 32.94683594 5.97164062 31.89367187 5.95703125 30.80859375 C5.69440736 21.4641959 4.33829492 13.64026092 1.05859375 4.87890625 C0 2 0 2 0 0 Z " fill="#000000" transform="translate(231,143)"/>
<path d="M0 0 C1.33998047 0.06960937 1.33998047 0.06960937 2.70703125 0.140625 C3.60808594 0.17671875 4.50914062 0.2128125 5.4375 0.25 C6.46810547 0.31960937 6.46810547 0.31960937 7.51953125 0.390625 C7.84953125 2.040625 8.17953125 3.690625 8.51953125 5.390625 C6.05674324 6.622019 4.24002575 6.46221696 1.51953125 6.390625 C1.21859065 9.47526614 1.17417471 10.92368887 3.05078125 13.4609375 C3.70046875 14.13898438 4.35015625 14.81703125 5.01953125 15.515625 C8.75120329 20.01780422 9.23870949 23.26048301 9.05859375 29.0078125 C8.42498358 31.80855311 7.90061194 32.79279454 5.51953125 34.390625 C3.07421875 34.71875 3.07421875 34.71875 0.39453125 34.640625 C-0.93964844 34.61742187 -0.93964844 34.61742187 -2.30078125 34.59375 C-4.48046875 34.390625 -4.48046875 34.390625 -5.48046875 33.390625 C-5.52110707 31.72445385 -5.52318975 30.05674405 -5.48046875 28.390625 C-2.84046875 28.390625 -0.20046875 28.390625 2.51953125 28.390625 C2.25159583 23.03191651 0.14347333 20.15493777 -3.10546875 16.125 C-5.6170048 12.95703975 -5.65632827 10.46551955 -5.80859375 6.4609375 C-5.21316632 2.70407398 -3.8355242 0.60401956 0 0 Z " fill="#000000" transform="translate(295.48046875,142.609375)"/>
<path d="M0 0 C0 1.98 0 3.96 0 6 C-2.31 6 -4.62 6 -7 6 C-6.73206458 11.35870849 -4.62394208 14.23568723 -1.375 18.265625 C1.43109054 21.80512557 1.37858694 24.5326741 1 29 C-0.375 31.9375 -0.375 31.9375 -3 34 C-6.37408398 34.41250557 -9.61916865 34.29033857 -13 34 C-13 32.02 -13 30.04 -13 28 C-10.69 28 -8.38 28 -6 28 C-5.70352755 24.91668654 -5.69198885 23.44070525 -7.49609375 20.859375 C-8.13675781 20.16328125 -8.77742188 19.4671875 -9.4375 18.75 C-12.59826732 14.89540571 -14.10948408 12.03419301 -14.25 7.01953125 C-14 5 -14 5 -12.6875 1.9375 C-8.64905511 -0.97393702 -4.82088485 -0.41400729 0 0 Z " fill="#000000" transform="translate(276,143)"/>
<path d="M0 0 C1.98 0 3.96 0 6 0 C6 9.57 6 19.14 6 29 C8.64 29 11.28 29 14 29 C14 30.65 14 32.3 14 34 C9.38 34 4.76 34 0 34 C0 22.78 0 11.56 0 0 Z " fill="#000000" transform="translate(135,143)"/>
</svg>
